<mxfile host="app.diagrams.net" modified="2023-05-13T16:32:17.413Z" agent="Mozilla/5.0 (X11; Ubuntu; Linux x86_64; rv:109.0) Gecko/20100101 Firefox/112.0" etag="mI-luPGHB1Dzs97dTrgf" version="21.3.0" type="github">
  <diagram name="Page-1" id="tNezgGxeEdKNbDLUK9dB">
    <mxGraphModel dx="1381" dy="797" grid="1" gridSize="10" guides="1" tooltips="1" connect="1" arrows="1" fold="1" page="1" pageScale="1" pageWidth="850" pageHeight="1100" math="0" shadow="0">
      <root>
        <mxCell id="0" />
        <mxCell id="1" parent="0" />
        <mxCell id="NBS_653OGy_gzSW7feAA-2" value="" style="rounded=1;whiteSpace=wrap;html=1;gradientColor=default;glass=0;shadow=0;" vertex="1" parent="1">
          <mxGeometry x="210" y="360" width="430" height="300" as="geometry" />
        </mxCell>
        <mxCell id="NBS_653OGy_gzSW7feAA-16" style="edgeStyle=orthogonalEdgeStyle;rounded=0;orthogonalLoop=1;jettySize=auto;html=1;entryX=0.375;entryY=0.4;entryDx=0;entryDy=0;entryPerimeter=0;" edge="1" parent="1" source="NBS_653OGy_gzSW7feAA-1" target="NBS_653OGy_gzSW7feAA-6">
          <mxGeometry relative="1" as="geometry" />
        </mxCell>
        <mxCell id="NBS_653OGy_gzSW7feAA-1" value="Internet" style="ellipse;shape=cloud;whiteSpace=wrap;html=1;" vertex="1" parent="1">
          <mxGeometry x="365" y="270" width="120" height="80" as="geometry" />
        </mxCell>
        <mxCell id="NBS_653OGy_gzSW7feAA-3" value="&lt;div&gt;Home Network&lt;/div&gt;&lt;div&gt;&lt;br&gt;&lt;/div&gt;" style="text;html=1;align=center;verticalAlign=middle;resizable=0;points=[];autosize=1;strokeColor=none;fillColor=none;" vertex="1" parent="1">
          <mxGeometry x="240" y="410" width="100" height="40" as="geometry" />
        </mxCell>
        <mxCell id="NBS_653OGy_gzSW7feAA-4" value="" style="verticalLabelPosition=bottom;sketch=0;aspect=fixed;html=1;verticalAlign=top;strokeColor=none;align=center;outlineConnect=0;shape=mxgraph.citrix.desktop;" vertex="1" parent="1">
          <mxGeometry x="251" y="440" width="89" height="98" as="geometry" />
        </mxCell>
        <mxCell id="NBS_653OGy_gzSW7feAA-5" value="PC" style="text;html=1;align=center;verticalAlign=middle;resizable=0;points=[];autosize=1;strokeColor=none;fillColor=none;" vertex="1" parent="1">
          <mxGeometry x="270" y="538" width="40" height="30" as="geometry" />
        </mxCell>
        <mxCell id="NBS_653OGy_gzSW7feAA-13" style="edgeStyle=orthogonalEdgeStyle;rounded=0;orthogonalLoop=1;jettySize=auto;html=1;" edge="1" parent="1" source="NBS_653OGy_gzSW7feAA-6" target="NBS_653OGy_gzSW7feAA-4">
          <mxGeometry relative="1" as="geometry" />
        </mxCell>
        <mxCell id="NBS_653OGy_gzSW7feAA-14" style="edgeStyle=orthogonalEdgeStyle;rounded=0;orthogonalLoop=1;jettySize=auto;html=1;" edge="1" parent="1" source="NBS_653OGy_gzSW7feAA-6" target="NBS_653OGy_gzSW7feAA-11">
          <mxGeometry relative="1" as="geometry" />
        </mxCell>
        <mxCell id="NBS_653OGy_gzSW7feAA-6" value="" style="image;html=1;image=img/lib/clip_art/networking/Wireless_Router_128x128.png" vertex="1" parent="1">
          <mxGeometry x="395" y="458" width="80" height="80" as="geometry" />
        </mxCell>
        <mxCell id="NBS_653OGy_gzSW7feAA-15" style="edgeStyle=orthogonalEdgeStyle;rounded=0;orthogonalLoop=1;jettySize=auto;html=1;entryX=0.665;entryY=0.031;entryDx=0;entryDy=0;entryPerimeter=0;" edge="1" parent="1" source="NBS_653OGy_gzSW7feAA-6" target="NBS_653OGy_gzSW7feAA-9">
          <mxGeometry relative="1" as="geometry" />
        </mxCell>
        <mxCell id="NBS_653OGy_gzSW7feAA-7" value="Wireless router" style="text;html=1;align=center;verticalAlign=middle;resizable=0;points=[];autosize=1;strokeColor=none;fillColor=none;" vertex="1" parent="1">
          <mxGeometry x="385" y="538" width="100" height="30" as="geometry" />
        </mxCell>
        <mxCell id="NBS_653OGy_gzSW7feAA-9" value="" style="html=1;verticalLabelPosition=bottom;align=center;labelBackgroundColor=#ffffff;verticalAlign=top;strokeWidth=2;strokeColor=#0080F0;shadow=0;dashed=0;shape=mxgraph.ios7.icons.smartphone;" vertex="1" parent="1">
          <mxGeometry x="416" y="600" width="18" height="30" as="geometry" />
        </mxCell>
        <mxCell id="NBS_653OGy_gzSW7feAA-10" value="&lt;div&gt;My Phone&lt;/div&gt;&lt;div&gt;&lt;br&gt;&lt;/div&gt;" style="text;html=1;align=center;verticalAlign=middle;resizable=0;points=[];autosize=1;strokeColor=none;fillColor=none;" vertex="1" parent="1">
          <mxGeometry x="385" y="630" width="80" height="40" as="geometry" />
        </mxCell>
        <mxCell id="NBS_653OGy_gzSW7feAA-11" value="" style="sketch=0;pointerEvents=1;shadow=0;dashed=0;html=1;strokeColor=none;fillColor=#505050;labelPosition=center;verticalLabelPosition=bottom;verticalAlign=top;outlineConnect=0;align=center;shape=mxgraph.office.devices.tv;" vertex="1" parent="1">
          <mxGeometry x="540" y="476" width="59" height="45" as="geometry" />
        </mxCell>
        <mxCell id="NBS_653OGy_gzSW7feAA-12" value="TV" style="text;html=1;align=center;verticalAlign=middle;resizable=0;points=[];autosize=1;strokeColor=none;fillColor=none;" vertex="1" parent="1">
          <mxGeometry x="549.5" y="535" width="40" height="30" as="geometry" />
        </mxCell>
      </root>
    </mxGraphModel>
  </diagram>
</mxfile>
